# xmcd CD database file
#
# Track frame offsets:
#	150
#	27441
#	66151
#	103704
#	134164
#	144412
#	174032
#	202497
#	240064
#	273516
#
# Disc length: 4182 seconds
#
# Revision: 0
# Processed by: cddbd v1.5.2PL0 Copyright (c) Steve Scherf et al.
# Submitted via: CDex 1.70beta2
#
DISCID=9210540a
DTITLE=Nikki Iles Quintet - Veils
DYEAR=2003
DGENRE=Jazz
TTITLE0=Beauteous Beast
TTITLE1=Crocodile Tears
TTITLE2=Little One
TTITLE3=High Lands
TTITLE4=So To Speake
TTITLE5=Fly's Dilemma
TTITLE6=Secret Place
TTITLE7=Silver And Gold
TTITLE8=Westerly
TTITLE9=Veils
EXTD=YEAR: 2003
EXTT0=
EXTT1=
EXTT2=
EXTT3=
EXTT4=
EXTT5=
EXTT6=
EXTT7=
EXTT8=
EXTT9=
PLAYORDER=
